<svg width="16" height="16" viewBox="0 0 16 16" fill="none" xmlns="http://www.w3.org/2000/svg">
<path d="M11.1992 14.1448H3.6552C2.5064 14.1448 1.5752 13.2136 1.5752 12.0648V4.17839C1.5752 3.02959 2.5064 2.09839 3.6552 2.09839H11.5192C12.668 2.09839 13.5992 3.02959 13.5992 4.17839V11.7456C13.5992 13.0704 12.5248 14.1448 11.1992 14.1448Z" fill="#A5ADF6"/>
<path d="M7.2512 11.396C7.2512 11.8777 7.34607 12.3547 7.53041 12.7997C7.71474 13.2447 7.98492 13.6491 8.32553 13.9897C8.66613 14.3303 9.07049 14.6005 9.51551 14.7848C9.96054 14.9692 10.4375 15.064 10.9192 15.064C11.4009 15.064 11.8779 14.9692 12.3229 14.7848C12.7679 14.6005 13.1723 14.3303 13.5129 13.9897C13.8535 13.6491 14.1237 13.2447 14.308 12.7997C14.4923 12.3547 14.5872 11.8777 14.5872 11.396C14.5872 10.4232 14.2007 9.49024 13.5129 8.80236C12.825 8.11448 11.892 7.72803 10.9192 7.72803C9.94638 7.72803 9.01341 8.11448 8.32553 8.80236C7.63765 9.49024 7.2512 10.4232 7.2512 11.396Z" fill="#A5ADF6"/>
<path d="M13.5992 11.8384V8.89197C12.9296 8.17597 11.9768 7.72717 10.9192 7.72717C8.8928 7.72717 7.2512 9.36957 7.2512 11.3952C7.2512 12.4904 7.732 13.4728 8.4928 14.1448H11.292C12.5664 14.1448 13.5992 13.112 13.5992 11.8384Z" fill="#635DF7"/>
<path d="M4.876 3.60239C4.536 3.60239 4.2608 3.32719 4.2608 2.98719V1.52639C4.2608 1.18639 4.536 0.911194 4.876 0.911194C5.216 0.911194 5.4912 1.18639 5.4912 1.52639V2.98719C5.4912 3.32639 5.2152 3.60239 4.876 3.60239ZM10.356 3.60239C10.016 3.60239 9.7408 3.32719 9.7408 2.98719V1.52639C9.7408 1.18639 10.016 0.911194 10.356 0.911194C10.696 0.911194 10.9712 1.18639 10.9712 1.52639V2.98719C10.9712 3.32639 10.6952 3.60239 10.356 3.60239Z" fill="#A5ADF6"/>
<path d="M4.2608 2.09839V2.98719C4.2608 3.32719 4.536 3.60239 4.876 3.60239C5.216 3.60239 5.4912 3.32719 5.4912 2.98719V2.09839H4.2608ZM9.7408 2.09839V2.98719C9.7408 3.32719 10.016 3.60239 10.356 3.60239C10.696 3.60239 10.9712 3.32719 10.9712 2.98719V2.09839H9.7408Z" fill="#635DF7"/>
<path d="M11.884 5.80081H3.2904C2.9368 5.80081 2.6504 5.51441 2.6504 5.16081C2.6504 4.80721 2.9368 4.52081 3.2904 4.52081H11.884C12.2376 4.52081 12.524 4.80721 12.524 5.16081C12.524 5.51441 12.2376 5.80081 11.884 5.80081ZM4.328 8.74561H3.2904C2.9368 8.74561 2.6504 8.45921 2.6504 8.10561C2.6504 7.75201 2.9368 7.46561 3.2904 7.46561H4.328C4.6816 7.46561 4.968 7.75201 4.968 8.10561C4.968 8.45921 4.6816 8.74561 4.328 8.74561ZM7.2992 8.74561H6.2616C5.908 8.74561 5.6216 8.45921 5.6216 8.10561C5.6216 7.75201 5.908 7.46561 6.2616 7.46561H7.2992C7.6528 7.46561 7.9392 7.75201 7.9392 8.10561C7.9392 8.45921 7.6528 8.74561 7.2992 8.74561ZM12.0344 13.4376C11.8704 13.4376 11.7072 13.3752 11.5816 13.2504L10.3536 12.0224C10.2941 11.963 10.247 11.8924 10.2149 11.8147C10.1828 11.737 10.1663 11.6537 10.1664 11.5696V10.0144C10.1664 9.66081 10.4528 9.37441 10.8064 9.37441C11.16 9.37441 11.4464 9.66081 11.4464 10.0144V11.3048L12.4872 12.3456C12.7368 12.5952 12.7368 13.0008 12.4872 13.2504C12.4278 13.3099 12.3572 13.3571 12.2795 13.3892C12.2018 13.4213 12.1185 13.4378 12.0344 13.4376Z" fill="white"/>
</svg>
