<svg width="25" height="25" viewBox="0 0 25 25" fill="none" xmlns="http://www.w3.org/2000/svg">
<path d="M17.9275 22.9975H5.0975C3.265 22.9975 1.77875 21.5113 1.77875 19.6788V5.50875C1.77875 3.67625 3.265 2.19 5.0975 2.19H17.9275C19.76 2.19 21.2463 3.67625 21.2463 5.50875V19.6788C21.2463 21.5113 19.76 22.9975 17.9275 22.9975Z" fill="#0EA5E9"/>
<path d="M15.5975 9.44501H5.51251C4.96001 9.44501 4.51251 8.99751 4.51251 8.44501C4.51251 7.89251 4.96001 7.44501 5.51251 7.44501H15.5975C16.15 7.44501 16.5975 7.89251 16.5975 8.44501C16.5975 8.99751 16.15 9.44501 15.5975 9.44501ZM11.7675 15.125H5.51251C4.96001 15.125 4.51251 14.6775 4.51251 14.125C4.51251 13.5725 4.96001 13.125 5.51251 13.125H11.7675C12.32 13.125 12.7675 13.5725 12.7675 14.125C12.7675 14.6775 12.32 15.125 11.7675 15.125Z" fill="#F3F4F6"/>
<path d="M15.5463 21.7075L12.9688 21.9688C12.6463 22.0013 12.4025 21.7575 12.435 21.435L12.6963 18.8575C12.7263 18.5663 12.865 18.2813 13.085 18.0613L20.0025 11.1438C20.48 10.6663 21.2038 10.615 21.6175 11.0288L23.3738 12.785C23.7888 13.2 23.7375 13.9225 23.2588 14.4L16.3413 21.3175C16.1213 21.5388 15.8375 21.6788 15.5463 21.7075Z" fill="#0EA5E9"/>
<path d="M21.2463 10.8012C20.8475 10.6687 20.3575 10.7887 20.0025 11.1437L13.085 18.0612C12.865 18.2812 12.7263 18.5662 12.6963 18.8575L12.435 21.435C12.4025 21.7575 12.6463 22.0012 12.9688 21.9687L15.5463 21.7075C15.8375 21.6775 16.1225 21.5387 16.3425 21.3187L21.2463 16.415V10.8012Z" fill="#0369A1"/>
</svg>
