<svg width="16" height="16" viewBox="0 0 16 16" fill="none" xmlns="http://www.w3.org/2000/svg">
<path d="M12.8832 14H3.0544C1.8304 14 0.838402 13.008 0.838402 11.784V4.38958C0.838402 3.16558 1.8304 2.17358 3.0544 2.17358H12.8832C14.1072 2.17358 15.0992 3.16558 15.0992 4.38958V11.7832C15.1 13.008 14.1072 14 12.8832 14Z" fill="#0EA5E9"/>
<path d="M9.244 6.50323C9.244 6.96216 9.42631 7.40229 9.75082 7.7268C10.0753 8.05132 10.5155 8.23363 10.9744 8.23363C11.4333 8.23363 11.8735 8.05132 12.198 7.7268C12.5225 7.40229 12.7048 6.96216 12.7048 6.50323C12.7048 6.0443 12.5225 5.60416 12.198 5.27965C11.8735 4.95514 11.4333 4.77283 10.9744 4.77283C10.5155 4.77283 10.0753 4.95514 9.75082 5.27965C9.42631 5.60416 9.244 6.0443 9.244 6.50323Z" fill="#0369A1"/>
<path d="M13.1576 11.9464H8.792C8.3856 11.9464 8.0912 11.5592 8.1992 11.1672L8.6928 9.38077C8.7808 9.01197 9.1392 8.74957 9.5536 8.74957H12.3536C12.7512 8.74957 13.1 8.99197 13.204 9.34077L13.7464 11.1544C13.8648 11.5496 13.5688 11.9464 13.1576 11.9464Z" fill="#0369A1"/>
<path d="M7.1832 6.36478H3.4328C3.0792 6.36478 2.7928 6.07838 2.7928 5.72478C2.7928 5.37118 3.0792 5.08478 3.4328 5.08478H7.1832C7.5368 5.08478 7.8232 5.37118 7.8232 5.72478C7.8232 6.07838 7.536 6.36478 7.1832 6.36478ZM7.1832 8.91598H3.4328C3.0792 8.91598 2.7928 8.62958 2.7928 8.27598C2.7928 7.92238 3.0792 7.63598 3.4328 7.63598H7.1832C7.5368 7.63598 7.8232 7.92238 7.8232 8.27598C7.8232 8.62958 7.536 8.91598 7.1832 8.91598ZM5.8672 11.4664H3.4328C3.0792 11.4664 2.7928 11.18 2.7928 10.8264C2.7928 10.4728 3.0792 10.1864 3.4328 10.1864H5.8672C6.2208 10.1864 6.5072 10.4728 6.5072 10.8264C6.5072 11.18 6.2208 11.4664 5.8672 11.4664Z" fill="white"/>
</svg>
