<svg width="16" height="16" viewBox="0 0 16 16" fill="none" xmlns="http://www.w3.org/2000/svg">
<g clip-path="url(#clip0_159_4666)">
<path d="M15.3668 4.79976C14.7416 3.37203 13.7137 2.15756 12.409 1.30503C11.1042 0.452495 9.57915 -0.00110438 8.02054 -0.000240136C6.77441 -0.0014865 5.5452 0.288182 4.43074 0.845706C3.31629 1.40323 2.34737 2.21322 1.60112 3.21119C1.50968 3.35228 1.47528 3.52284 1.50487 3.68834C1.53446 3.85384 1.62584 4.00191 1.76049 4.10257C1.89515 4.20324 2.06303 4.24897 2.23013 4.23052C2.39724 4.21207 2.5511 4.13081 2.66054 4.00319C3.28343 3.16963 4.09238 2.49306 5.02294 2.02738C5.9535 1.56171 6.97996 1.31979 8.02054 1.3209C9.3218 1.32004 10.5951 1.69862 11.6845 2.41028C12.7739 3.12194 13.6322 4.13581 14.1543 5.32776C14.2314 5.47753 14.3626 5.59232 14.5213 5.6488C14.68 5.70528 14.8543 5.69922 15.0087 5.63184C15.1631 5.56446 15.286 5.44083 15.3526 5.28606C15.4191 5.1313 15.4242 4.95701 15.3668 4.79861V4.79976ZM0.537117 5.19976C0.207617 5.86727 0.0244846 6.59746 -2.54593e-05 7.34147C-0.00184408 7.51697 0.0661279 7.686 0.188937 7.81138C0.311747 7.93676 0.479334 8.00822 0.654831 8.01004C0.830329 8.01186 0.999361 7.94389 1.12474 7.82108C1.25012 7.69827 1.32158 7.53068 1.3234 7.35518C1.34544 6.81832 1.4773 6.29167 1.71083 5.80776C1.77611 5.654 1.78094 5.48127 1.72434 5.32411C1.66774 5.16695 1.5539 5.03696 1.40558 4.96013C1.25726 4.8833 1.0854 4.86529 0.924382 4.90972C0.763361 4.95415 0.625051 5.05774 0.537117 5.19976ZM0.695974 11.2489C1.32698 12.6641 2.35467 13.866 3.65462 14.7091C4.95458 15.5523 6.47108 16.0006 8.02054 15.9998C9.26464 16.0011 10.4919 15.7125 11.6051 15.1569C12.7182 14.6012 13.6865 13.7938 14.4331 12.7986C14.5242 12.6576 14.5584 12.4874 14.5289 12.3222C14.4993 12.157 14.4082 12.0091 14.2739 11.9084C14.1396 11.8078 13.9721 11.7618 13.8052 11.7798C13.6384 11.7978 13.4846 11.8785 13.3748 12.0055C12.7516 12.8366 11.9431 13.5109 11.0137 13.9749C10.0842 14.439 9.05938 14.6799 8.02054 14.6786C6.72695 14.6794 5.46085 14.3053 4.37549 13.6015C3.29013 12.8976 2.43205 11.8943 1.90512 10.7129C1.82711 10.5635 1.6951 10.4493 1.53595 10.3938C1.37679 10.3382 1.20244 10.3454 1.04839 10.4138C0.894328 10.4823 0.772133 10.6068 0.706665 10.7622C0.641197 10.9175 0.637374 11.092 0.695974 11.25V11.2489ZM15.5234 10.8649C15.856 10.1792 16.0057 9.45918 16 8.63633C15.9984 8.46083 15.9273 8.29312 15.8021 8.1701C15.6769 8.04707 15.508 7.97881 15.3325 7.98033C15.157 7.98184 14.9893 8.05301 14.8663 8.17818C14.7433 8.30335 14.675 8.47226 14.6765 8.64775C14.6811 9.2729 14.5737 9.79404 14.3337 10.2889C14.2692 10.4451 14.2668 10.6199 14.327 10.7778C14.3871 10.9357 14.5053 11.0646 14.6573 11.1383C14.8093 11.212 14.9838 11.2248 15.1449 11.1742C15.3061 11.1236 15.4419 11.0134 15.5245 10.866L15.5234 10.8649Z" fill="#CDCDCD"/>
<path d="M12.1349 4.31769C12.0426 4.31724 11.9511 4.33497 11.8657 4.36988C11.7802 4.40479 11.7025 4.45618 11.6369 4.52113C11.5713 4.58608 11.5192 4.66331 11.4834 4.74841C11.4477 4.83351 11.4291 4.92482 11.4286 5.01712C11.4286 5.40226 11.7452 5.71541 12.1349 5.71541H14.9006C15.0442 5.71631 15.1865 5.6889 15.3195 5.63476C15.4525 5.58061 15.5735 5.50079 15.6756 5.39985C15.7777 5.29891 15.8589 5.17884 15.9146 5.04649C15.9703 4.91415 15.9993 4.77212 16.0001 4.62855V1.83998C15.9985 1.65397 15.9234 1.47614 15.791 1.34546C15.6586 1.21479 15.4798 1.14192 15.2938 1.14284C15.1076 1.14162 14.9285 1.21435 14.7958 1.34506C14.6632 1.47577 14.5878 1.65377 14.5863 1.83998V4.31769H12.1349ZM3.8652 11.6823C3.9575 11.6827 4.04899 11.665 4.13444 11.6301C4.21988 11.5952 4.29762 11.5438 4.3632 11.4788C4.42879 11.4139 4.48094 11.3366 4.51667 11.2515C4.55241 11.1664 4.57104 11.0751 4.57149 10.9828C4.56998 10.7968 4.49479 10.619 4.3624 10.4883C4.23001 10.3576 4.05122 10.2848 3.8652 10.2857H1.09949C0.95601 10.2848 0.813758 10.3122 0.680855 10.3662C0.547952 10.4203 0.427002 10.5 0.32491 10.6008C0.222818 10.7017 0.141584 10.8216 0.0858464 10.9538C0.0301086 11.086 0.000958705 11.2279 6.10352e-05 11.3714V14.16C6.10352e-05 14.544 0.316632 14.8571 0.706346 14.8571C0.89256 14.8583 1.07165 14.7856 1.20428 14.6549C1.33692 14.5242 1.41226 14.3462 1.41377 14.16V11.6823H3.8652Z" fill="#CDCDCD"/>
</g>
<defs>
<clipPath id="clip0_159_4666">
<rect width="16" height="16" fill="white"/>
</clipPath>
</defs>
</svg>
